<svg width="107" height="36" viewBox="0 0 107 36" fill="none" xmlns="http://www.w3.org/2000/svg">
<path d="M0.345 18.25C0.345 23.43 3.845 27.35 8.99 27.35C11.93 27.35 13.89 26.125 15.22 24.375L15.255 27.805C15.29 32.18 12.91 33.65 9.27 33.65C7.1 33.65 4.44 33.23 3.67 29.94H0.73C1.745 34.245 5.525 35.75 9.27 35.75C15.64 35.75 17.705 31.445 17.705 27.805V9.5H15.255V12.195C13.68 10.025 11.44 9.15 8.99 9.15C3.845 9.15 0.345 13.105 0.345 18.25ZM2.83 18.25C2.83 14.365 5.105 11.46 8.99 11.46C12.91 11.46 15.255 14.33 15.255 18.25C15.255 22.345 12.77 25.04 8.99 25.04C5.07 25.04 2.83 22.03 2.83 18.25ZM38.9027 9.5H36.4527V24.725H26.7227V9.5H24.2727V27H38.9027V9.5ZM54.1154 9.15C49.9854 9.15 47.2904 11.285 46.7654 14.68H49.3554C49.8104 12.685 51.1404 11.215 54.1154 11.215C56.9504 11.215 58.2454 12.195 58.2454 14.96V16.745C48.2704 19.02 46.4854 22.1 46.5204 27H48.9704C48.9704 23.605 50.0904 21.19 58.2454 18.985V27H60.6954V14.785C60.6954 10.69 57.6154 9.15 54.1154 9.15ZM85.2181 11.95V9.5C79.2681 8.275 75.4881 10.97 74.1231 15.205L74.2631 9.5H71.8131L71.8481 27H74.2981L74.2631 18.635C74.2631 15.345 78.1481 10.445 85.2181 11.95ZM98.0508 27.35C101.061 27.35 102.741 26.195 104.246 24.34V27H106.696V0.749998H104.246V12.16C102.916 10.41 101.026 9.15 98.0508 9.15C92.9058 9.15 89.4408 13.07 89.4408 18.25C89.4408 23.395 92.9058 27.35 98.0508 27.35ZM98.0508 25.04C94.1658 25.04 91.9258 22.135 91.9258 18.25C91.9258 14.47 94.1308 11.46 98.0508 11.46C101.831 11.46 104.246 14.155 104.246 18.25C104.246 22.17 101.971 25.04 98.0508 25.04Z" fill="white"/>
</svg>
