<svg width="92" height="31" viewBox="0 0 92 31" fill="none" xmlns="http://www.w3.org/2000/svg">
<path d="M0.0100001 15.5C0.0100001 19.94 3.01 23.3 7.42 23.3C9.94 23.3 11.62 22.25 12.76 20.75L12.79 23.69C12.82 27.44 10.78 28.7 7.66 28.7C5.8 28.7 3.52 28.34 2.86 25.52H0.34C1.21 29.21 4.45 30.5 7.66 30.5C13.12 30.5 14.89 26.81 14.89 23.69V8H12.79V10.31C11.44 8.45 9.52 7.7 7.42 7.7C3.01 7.7 0.0100001 11.09 0.0100001 15.5ZM2.14 15.5C2.14 12.17 4.09 9.68 7.42 9.68C10.78 9.68 12.79 12.14 12.79 15.5C12.79 19.01 10.66 21.32 7.42 21.32C4.06 21.32 2.14 18.74 2.14 15.5ZM33.0595 8H30.9595V21.05H22.6195V8H20.5195V23H33.0595V8ZM46.0989 7.7C42.5589 7.7 40.2489 9.53 39.7989 12.44H42.0189C42.4089 10.73 43.5489 9.47 46.0989 9.47C48.5289 9.47 49.6389 10.31 49.6389 12.68V14.21C41.0889 16.16 39.5589 18.8 39.5889 23H41.6889C41.6889 20.09 42.6489 18.02 49.6389 16.13V23H51.7389V12.53C51.7389 9.02 49.0989 7.7 46.0989 7.7ZM72.7584 10.1V8C67.6584 6.95 64.4184 9.26 63.2484 12.89L63.3684 8H61.2684L61.2984 23H63.3984L63.3684 15.83C63.3684 13.01 66.6984 8.81 72.7584 10.1ZM83.7578 23.3C86.3378 23.3 87.7778 22.31 89.0678 20.72V23H91.1678V0.499998H89.0678V10.28C87.9278 8.78 86.3078 7.7 83.7578 7.7C79.3478 7.7 76.3778 11.06 76.3778 15.5C76.3778 19.91 79.3478 23.3 83.7578 23.3ZM83.7578 21.32C80.4278 21.32 78.5078 18.83 78.5078 15.5C78.5078 12.26 80.3978 9.68 83.7578 9.68C86.9978 9.68 89.0678 11.99 89.0678 15.5C89.0678 18.86 87.1178 21.32 83.7578 21.32Z" fill="#202020"/>
</svg>
