<svg width="131" height="88" viewBox="0 0 131 88" fill="none" xmlns="http://www.w3.org/2000/svg">
<g clip-path="url(#clip0_431_589)">
<path d="M131 46.7707C131 64.5705 119.743 79.7367 103.976 85.5075C101.578 86.3872 99.1019 87.0385 96.5815 87.4528C89.6476 88.5925 82.5385 87.9455 75.9229 85.5725C60.0562 79.8491 48.7172 64.6317 48.7247 46.7619C48.7247 24.0008 67.1431 5.54132 89.8624 5.54132C98.4487 5.5288 106.822 8.22101 113.798 13.2375C124.214 20.7162 131 32.9488 131 46.7707Z" fill="#E5E5E5"/>
<path d="M103.976 85.5075C101.578 86.3871 99.1019 87.0384 96.5815 87.4528C89.6476 88.5925 82.5385 87.9454 75.9229 85.5724L77.8227 77.9325L77.9374 77.474L81.8143 77.489L101.291 77.559L101.54 78.2973L103.976 85.5075Z" fill="#2F2E41"/>
<path d="M35.7338 0H0V40.5241H35.7338V0Z" fill="#E6E6E6"/>
<path d="M35.0342 0.85733H0.637135V39.6669H35.0342V0.85733Z" fill="white"/>
<path d="M17.867 38.2869C18.9318 38.2869 19.7951 37.4218 19.7951 36.3545C19.7951 35.2873 18.9318 34.4221 17.867 34.4221C16.8021 34.4221 15.9389 35.2873 15.9389 36.3545C15.9389 37.4218 16.8021 38.2869 17.867 38.2869Z" fill="#E6E6E6"/>
<path d="M17.5412 14.5951H6.46684V15.7305H17.5412V14.5951Z" fill="#E6E6E6"/>
<path d="M23.1811 17.9975H6.46684V19.1329H23.1811V17.9975Z" fill="white"/>
<path d="M21.5404 21.4213H6.46684V22.5567H21.5404V21.4213Z" fill="#E6E6E6"/>
<path d="M29.7436 24.7546H6.46684V25.89H29.7436V24.7546Z" fill="white"/>
<path d="M25.6789 27.9291H6.7088V29.0646H25.6789V27.9291Z" fill="#E6E6E6"/>
<path d="M50.8124 65.9408C50.9482 66.0807 51.0729 66.2311 51.1852 66.3906L68.6512 65.9623L70.6887 62.2307L76.7098 64.5765L73.7429 71.5339C73.5032 72.0959 73.0881 72.5649 72.5599 72.8704C72.0317 73.1759 71.4188 73.3014 70.8134 73.2282L51.0798 70.839C50.6143 71.4296 49.9804 71.8642 49.2625 72.0849C48.5445 72.3057 47.7766 72.3021 47.0607 72.0747C46.3448 71.8474 45.715 71.407 45.255 70.8121C44.7949 70.2172 44.5265 69.4961 44.4854 68.7445C44.4443 67.993 44.6324 67.2468 45.0248 66.6051C45.4172 65.9634 45.9952 65.4566 46.682 65.1521C47.3687 64.8477 48.1317 64.76 48.8694 64.9008C49.6071 65.0415 50.2846 65.404 50.8117 65.9401L50.8124 65.9408Z" fill="#AB9481"/>
<path d="M74.3207 44.6328L82.4945 41.948L84.8952 38.6483L96.5778 39.3412L98.293 43.1917L104.522 46.1419L103.565 63.961L101.927 80.6372C93.5055 76.2665 77.7883 79.5987 77.6507 79.6529L74.3207 44.6328Z" fill="white"/>
<path d="M76.068 68.7519L67.754 65.418L67.7894 65.2697C67.825 65.1198 71.3636 50.3001 71.8335 47.9186C72.3229 45.4374 74.1111 44.7514 74.187 44.7235L74.2425 44.703L77.5328 45.7068L78.9778 57.0862L76.068 68.7519Z" fill="white"/>
<path d="M94.0196 79.9042C94.2145 79.8995 94.4095 79.9103 94.6027 79.9364L106.164 66.809L104.82 62.7753L110.63 59.9452L113.703 66.8558C113.952 67.4141 114.012 68.0381 113.877 68.634C113.741 69.2299 113.416 69.7657 112.951 70.1608L97.7862 83.0385C97.9018 83.7821 97.7887 84.5434 97.462 85.2211C97.1353 85.8987 96.6105 86.4606 95.9574 86.8321C95.3043 87.2035 94.5538 87.3669 93.8058 87.3005C93.0578 87.2341 92.3477 86.941 91.77 86.4602C91.1922 85.9794 90.7742 85.3338 90.5715 84.6091C90.3688 83.8844 90.391 83.1151 90.6352 82.4034C90.8795 81.6917 91.3341 81.0714 91.9386 80.6249C92.5432 80.1785 93.269 79.9271 94.0196 79.9042Z" fill="#AB9481"/>
<path d="M105.242 68.0868L100.419 56.7168L102.3 48.7969L104.327 46.2305C104.475 46.1669 104.635 46.1349 104.796 46.1364C104.958 46.1379 105.117 46.1729 105.265 46.2393C106.013 46.5407 106.648 47.4649 107.157 48.9859L111.677 61.8893L105.242 68.0868Z" fill="white"/>
<path d="M80.2188 34.4351V25.8631C80.2138 24.3547 80.5053 22.8601 81.0767 21.4646C81.6481 20.0691 82.4881 18.8 83.5488 17.7298C84.6095 16.6597 85.8701 15.8094 87.2587 15.2276C88.6473 14.6457 90.1367 14.3436 91.6417 14.3386C93.1468 14.3336 94.6381 14.6258 96.0305 15.1984C97.4229 15.7711 98.6892 16.6129 99.7569 17.676C100.825 18.7391 101.673 20.0026 102.254 21.3942C102.834 22.7859 103.136 24.2786 103.141 25.787C103.141 25.8124 103.141 25.8378 103.141 25.8631V34.4351C103.14 34.8442 102.978 35.2363 102.689 35.5256C102.401 35.8149 102.009 35.9776 101.601 35.9781H81.7584C81.3502 35.9776 80.9589 35.8149 80.6702 35.5256C80.3816 35.2363 80.2193 34.8442 80.2188 34.4351Z" fill="#2F2E41"/>
<path d="M89.3246 35.7783C93.9652 35.7783 97.7272 32.0079 97.7272 27.3569C97.7272 22.7059 93.9652 18.9355 89.3246 18.9355C84.6839 18.9355 80.9219 22.7059 80.9219 27.3569C80.9219 32.0079 84.6839 35.7783 89.3246 35.7783Z" fill="#AB9481"/>
<path d="M77.5075 26.5489C77.5102 24.1399 78.4662 21.8303 80.1659 20.1269C81.8655 18.4235 84.1699 17.4653 86.5736 17.4626H88.2843C90.6879 17.4653 92.9923 18.4235 94.692 20.1269C96.3916 21.8303 97.3476 24.1399 97.3503 26.5489V26.7203H93.7351L92.5021 23.2595L92.2556 26.7203H90.3874L89.7654 24.9744L89.6407 26.7203H77.5075V26.5489Z" fill="#2F2E41"/>
<path d="M88.4977 36.942C88.328 36.7117 88.2266 36.438 88.2053 36.1525C88.184 35.867 88.2436 35.5812 88.3772 35.3281C90.1898 31.8726 92.7278 25.4874 89.3591 21.5496L89.1175 21.267H98.8978V35.9834L90.0132 37.5545C89.9233 37.5704 89.8321 37.5785 89.7408 37.5786C89.4983 37.5786 89.2592 37.5209 89.0432 37.4103C88.8272 37.2998 88.6405 37.1394 88.4983 36.9424L88.4977 36.942Z" fill="#2F2E41"/>
<path d="M17.8359 3.15618C17.0249 3.15614 16.2322 3.39711 15.5579 3.84861C14.8836 4.30011 14.3581 4.94187 14.0477 5.69273C13.7373 6.44359 13.6561 7.26983 13.8142 8.06696C13.9724 8.86409 14.3629 9.59632 14.9363 10.171C15.5097 10.7458 16.2402 11.1372 17.0356 11.2958C17.8309 11.4544 18.6553 11.373 19.4045 11.0621C20.1538 10.7511 20.7942 10.2244 21.2447 9.54867C21.6953 8.87292 21.9358 8.07844 21.9359 7.2657V7.26548C21.9359 6.72584 21.8298 6.19148 21.6237 5.69292C21.4177 5.19436 21.1157 4.74135 20.7349 4.35977C20.3542 3.97818 19.9022 3.67549 19.4047 3.46898C18.9073 3.26247 18.3741 3.15618 17.8357 3.15618H17.8359ZM17.8359 4.38886C18.0791 4.38886 18.3169 4.46115 18.5192 4.5966C18.7215 4.73205 18.8791 4.92457 18.9722 5.14981C19.0653 5.37505 19.0897 5.6229 19.0422 5.86202C18.9947 6.10114 18.8776 6.32078 18.7056 6.49317C18.5336 6.66557 18.3144 6.78297 18.0758 6.83054C17.8373 6.8781 17.59 6.85369 17.3652 6.76039C17.1405 6.6671 16.9484 6.5091 16.8132 6.30639C16.6781 6.10367 16.6059 5.86535 16.6059 5.62155C16.6059 5.29462 16.7355 4.98108 16.9662 4.74991C17.1968 4.51874 17.5097 4.38886 17.8359 4.38886ZM17.8359 10.3235C17.35 10.3213 16.8719 10.2003 16.4432 9.97101C16.0145 9.74172 15.6481 9.41106 15.3758 9.00773C15.3955 8.18587 17.0159 7.73348 17.8359 7.73348C18.6559 7.73348 20.2762 8.18587 20.296 9.00773C20.0234 9.41077 19.6569 9.7412 19.2283 9.97045C18.7996 10.1997 18.3217 10.3209 17.8359 10.3235Z" fill="white"/>
<path d="M17.8835 37.0953C19.5727 33.993 23.6191 32.0283 26.9292 33.7992C28.4191 34.5962 29.6035 36.0059 29.9795 37.6722C30.4158 39.6079 29.4964 41.4536 28.5474 43.0798C28.0323 43.9625 27.4679 44.8272 27.0415 45.7582C26.6001 46.7223 26.2846 47.8367 26.6169 48.8855C26.9161 49.8304 27.6663 50.5177 28.4878 51.0228C29.3945 51.5592 30.3589 51.9909 31.3626 52.3097C33.4286 52.9983 35.6078 53.2809 37.7807 53.1419C38.8606 53.0683 39.9314 52.8949 40.9795 52.6236C42.0943 52.3388 43.1883 51.9777 44.305 51.6991C46.1694 51.235 48.2952 51.0042 50.0632 51.9365C51.7807 52.8425 52.5494 54.7374 52.7871 56.5809C53.2261 59.9849 51.8794 63.5174 49.448 65.9012C48.2814 67.0449 46.8134 67.9898 45.2145 68.3764C43.8195 68.7137 42.0281 68.6921 40.9179 67.6469C39.679 66.4803 39.9705 64.6098 40.9544 63.379C42.2104 61.8087 44.338 61.4315 46.2367 61.3932C48.3966 61.3498 50.5544 61.6721 52.713 61.4717C53.7667 61.3895 54.8005 61.1396 55.7757 60.7313C56.633 60.3534 57.4149 59.8231 58.0837 59.166C59.4164 57.8684 60.3152 56.1397 60.7621 54.3424C61.3002 52.181 61.1829 49.9094 60.7652 47.7383C60.5425 46.6188 60.2558 45.5131 59.9065 44.4266C59.7623 43.9681 59.0399 44.1642 59.1852 44.6259C60.4717 48.7143 61.189 53.4418 58.7034 57.2378C57.6748 58.8476 56.0724 60.0036 54.2228 60.4703C52.0715 61.0062 49.8142 60.7413 47.6272 60.6616C45.5476 60.5858 43.2641 60.6676 41.4815 61.8815C40.0191 62.8771 38.9963 64.7709 39.4383 66.5588C39.8645 68.2829 41.5177 69.1575 43.1712 69.2922C44.9061 69.4338 46.6133 68.8503 48.0703 67.9377C51.1012 66.0395 53.1164 62.7012 53.5382 59.1619C53.7579 57.3177 53.5343 55.3312 52.6998 53.6572C52.2601 52.7511 51.5757 51.9867 50.7243 51.4507C49.8754 50.9291 48.8948 50.6724 47.91 50.5815C45.6726 50.375 43.523 51.1449 41.4006 51.7338C40.3163 52.0491 39.205 52.2617 38.0811 52.3689C36.9904 52.4595 35.8933 52.4415 34.8061 52.3154C33.7272 52.1878 32.664 51.9513 31.6326 51.6095C30.6219 51.2964 29.6542 50.8579 28.752 50.3043C27.956 49.7942 27.2677 49.0635 27.2285 48.0679C27.186 46.9883 27.7292 45.9785 28.2457 45.0683C29.2663 43.2703 30.527 41.5117 30.7932 39.4069C31.0263 37.5657 30.287 35.751 29.0105 34.4377C28.3708 33.7712 27.6006 33.2442 26.7482 32.8898C25.8958 32.5354 24.9796 32.3612 24.0569 32.3781C22.163 32.4325 20.3496 33.2579 18.9565 34.5257C18.2656 35.1548 17.6842 35.895 17.2362 36.7158C17.0054 37.1395 17.6511 37.5182 17.882 37.0942L17.8835 37.0953Z" fill="#3F3D56"/>
</g>
<defs>
<clipPath id="clip0_431_589">
<rect width="131" height="88" fill="white"/>
</clipPath>
</defs>
</svg>
