<svg width="131" height="92" viewBox="0 0 131 92" fill="none" xmlns="http://www.w3.org/2000/svg">
<g clip-path="url(#clip0_431_558)">
<path d="M51.5131 57.6554C51.5535 57.3821 51.5332 57.1034 51.4536 56.8388C51.3741 56.5742 51.2373 56.3302 51.0528 56.124C50.8684 55.9178 50.6408 55.7543 50.386 55.6452C50.1313 55.536 49.8556 55.4838 49.5784 55.4922L37.4284 43.2585L35.0283 46.5999L47.726 57.5746C47.7711 58.0374 47.9851 58.4677 48.3274 58.7839C48.6698 59.1001 49.1167 59.2802 49.5835 59.2902C50.0503 59.3001 50.5046 59.1392 50.8602 58.8379C51.2159 58.5366 51.4482 58.1159 51.5131 57.6554Z" fill="#8F6F55"/>
<path d="M45.7578 50.5913L42.6567 53.6761C42.5082 53.823 42.3076 53.9058 42.0983 53.9067C41.889 53.9075 41.6877 53.8263 41.538 53.6806L33.0641 45.3841C32.7711 45.0972 32.5381 44.7553 32.3787 44.3782C32.2192 44.0011 32.1364 43.5963 32.135 43.1871C32.1337 42.7779 32.2138 42.3725 32.3707 41.9944C32.5276 41.6162 32.7583 41.2728 33.0494 40.984C33.3404 40.6952 33.6861 40.4667 34.0663 40.3117C34.4466 40.1568 34.854 40.0784 35.2648 40.0812C35.6757 40.0841 36.0819 40.168 36.46 40.3281C36.8381 40.4882 37.1806 40.7215 37.4676 41.0142L45.7648 49.4786C45.9103 49.628 45.9911 49.8283 45.9897 50.0364C45.9884 50.2445 45.9051 50.4437 45.7578 50.5913Z" fill="#ABABAB"/>
<path d="M34.8818 35.4492C37.2772 35.4492 39.219 33.5154 39.219 31.13C39.219 28.7446 37.2772 26.8108 34.8818 26.8108C32.4865 26.8108 30.5447 28.7446 30.5447 31.13C30.5447 33.5154 32.4865 35.4492 34.8818 35.4492Z" fill="#8F6F55"/>
<path d="M20.2267 82.8887L21.3249 84.7466L29.0439 81.4125L27.423 78.6702L20.2267 82.8887Z" fill="#8F6F55"/>
<path d="M20.5558 82.0577L22.7185 85.7167L22.7186 85.7169C22.8996 86.0231 23.0183 86.3618 23.0678 86.7137C23.1173 87.0656 23.0968 87.4238 23.0073 87.7677C22.9179 88.1117 22.7613 88.4348 22.5464 88.7185C22.3316 89.0022 22.0628 89.241 21.7553 89.4212L21.6792 89.4658L18.1382 83.4749L20.5558 82.0577Z" fill="#2F2E41"/>
<path d="M32.951 89.5821H35.116L36.1458 81.2662L32.9507 81.2664L32.951 89.5821Z" fill="#8F6F55"/>
<path d="M32.3989 88.8783L36.6623 88.8781H36.6625C37.0193 88.8781 37.3726 88.9481 37.7023 89.084C38.0319 89.22 38.3315 89.4193 38.5838 89.6706C38.8361 89.9218 39.0362 90.2201 39.1728 90.5484C39.3093 90.8767 39.3796 91.2285 39.3796 91.5838V91.6718L32.399 91.672L32.3989 88.8783Z" fill="#2F2E41"/>
<path d="M24.2473 84.5439C24.1227 84.544 23.9999 84.5148 23.8887 84.4588C23.7775 84.4028 23.6812 84.3215 23.6074 84.2215L21.5195 81.3976C21.4558 81.3114 21.4103 81.2133 21.3857 81.1092C21.3612 81.005 21.3581 80.897 21.3767 80.7916C21.3952 80.6863 21.4351 80.5857 21.4937 80.4961C21.5524 80.4065 21.6287 80.3297 21.718 80.2703L31.009 74.0904L25.403 59.411L37.3913 60.3962L37.7951 73.0109C37.8329 74.1597 37.5564 75.2972 36.9951 76.3016C36.4339 77.306 35.6089 78.1394 34.6085 78.7128L24.6444 84.4376C24.5237 84.5072 24.3868 84.5439 24.2473 84.5439Z" fill="#2F2E41"/>
<path d="M33.0164 87.8939C32.8108 87.8935 32.6133 87.8138 32.4655 87.6715C32.3177 87.5292 32.2311 87.3353 32.2237 87.1307L31.7844 74.8416L37.2247 74.5562L36.7915 86.9336C36.7852 87.1297 36.7057 87.3164 36.5686 87.4572C36.4314 87.5981 36.2465 87.6831 36.0499 87.6956L33.0704 87.8922C33.0524 87.8934 33.0343 87.8939 33.0164 87.8939Z" fill="#2F2E41"/>
<path d="M38.7787 62.8365C37.3945 62.8365 32.5599 61.2861 30.8815 60.7335C30.6305 60.9335 29.2511 61.9607 27.641 61.773C26.6475 61.6569 25.7729 61.0969 25.0415 60.1084C23.4262 57.9253 25.4212 48.5632 27.3793 41.0938C27.7718 39.584 28.7369 38.2845 30.0715 37.4686C31.4062 36.6527 33.0065 36.3838 34.5361 36.7185C35.6447 36.9623 36.6631 37.509 37.4769 38.2974C38.2907 39.0858 38.8676 40.0845 39.1428 41.1814C39.5115 42.6758 39.1943 44.4337 38.9628 45.7174C38.8539 46.3209 38.7679 46.7976 38.7973 47.0318C38.911 47.9372 39.5423 62.1364 39.1363 62.7428C39.0931 62.8073 38.9681 62.8365 38.7787 62.8365Z" fill="#ABABAB"/>
<path d="M33.7151 62.8617C33.9376 62.6967 34.121 62.4853 34.2525 62.2421C34.384 61.9989 34.4604 61.73 34.4762 61.4543C34.4921 61.1786 34.447 60.9027 34.3443 60.6462C34.2415 60.3897 34.0835 60.1587 33.8814 59.9696L33.9671 42.7633L29.8977 43.4381L31.093 60.1392C30.7965 60.4983 30.6426 60.9534 30.6604 61.418C30.6782 61.8827 30.8666 62.3246 31.1898 62.6602C31.513 62.9958 31.9486 63.2017 32.414 63.2388C32.8794 63.2759 33.3424 63.1417 33.7151 62.8617Z" fill="#8F6F55"/>
<path d="M34.6563 53.8133H30.2731C30.0638 53.8127 29.8631 53.7301 29.7144 53.5834C29.5658 53.4367 29.481 53.2376 29.4785 53.0292L29.3709 41.1955C29.3671 40.7863 29.4449 40.3804 29.5997 40.0014C29.7544 39.6223 29.9831 39.2775 30.2725 38.987C30.5619 38.6966 30.9063 38.4661 31.2857 38.309C31.6651 38.1519 32.0721 38.0712 32.483 38.0717C32.8939 38.0722 33.3006 38.1539 33.6796 38.3119C34.0587 38.4699 34.4025 38.7012 34.6912 38.9924C34.9799 39.2836 35.2077 39.6289 35.3616 40.0084C35.5154 40.3878 35.5922 40.7939 35.5874 41.203L35.4509 53.0311C35.4478 53.2391 35.3628 53.4377 35.2142 53.584C35.0656 53.7303 34.8652 53.8126 34.6563 53.8133Z" fill="#ABABAB"/>
<path d="M33.7775 35.4312C31.7917 35.4348 29.9183 33.8717 29.5742 31.9241C29.451 31.1589 29.5066 30.3758 29.7365 29.6355C29.9862 28.7928 30.4145 28.0132 30.9924 27.3492C31.5702 26.6852 32.2843 26.1524 33.0865 25.7865C33.8887 25.4207 34.7603 25.2303 35.6426 25.2283C36.525 25.2264 37.3974 25.4128 38.2013 25.775C38.7325 26.0144 39.2558 26.3582 39.499 26.886C39.7422 27.4137 39.59 28.1513 39.0579 28.3888C38.7102 28.5439 38.2738 28.4677 37.9653 28.6905C37.5222 29.0104 37.6363 29.6913 37.8341 30.1995C38.032 30.7077 38.2558 31.3227 37.9241 31.7563C37.615 32.1603 36.9972 32.1477 36.5106 31.9957C36.024 31.8436 35.5437 31.589 35.0364 31.6408C34.2964 31.7163 33.7647 32.4493 33.6662 33.1835C33.5678 33.9178 33.7995 34.6517 34.0283 35.3566L33.7775 35.4312Z" fill="#2F2E41"/>
<path d="M88.0493 39.8393C88.0493 28.0279 97.6642 0 109.525 0C121.385 0 131 28.0279 131 39.8393C131 45.5114 128.737 50.9511 124.71 54.9618C120.683 58.9726 115.22 61.2258 109.525 61.2258C103.829 61.2258 98.3667 58.9726 94.3393 54.9618C90.3119 50.9511 88.0493 45.5114 88.0493 39.8393Z" fill="#ABABAB"/>
<path d="M109.525 91.8701C109.478 91.8701 109.433 91.8516 109.4 91.8186C109.367 91.7856 109.348 91.7409 109.348 91.6943V17.9608C109.348 17.9142 109.367 17.8694 109.4 17.8364C109.433 17.8035 109.478 17.7849 109.525 17.7849C109.572 17.7849 109.616 17.8035 109.65 17.8364C109.683 17.8694 109.701 17.9142 109.701 17.9608V91.6943C109.701 91.7409 109.683 91.7856 109.65 91.8186C109.616 91.8516 109.572 91.8701 109.525 91.8701Z" fill="#3F3D56"/>
<path d="M109.525 32.1956C109.501 32.1956 109.478 32.1911 109.457 32.1822C109.436 32.1734 109.416 32.1604 109.4 32.1441L100.9 23.6794C100.867 23.6463 100.849 23.6017 100.849 23.5552C100.849 23.5088 100.868 23.4643 100.901 23.4315C100.934 23.3986 100.978 23.3801 101.025 23.38C101.072 23.3798 101.116 23.3981 101.15 23.4307L109.649 31.8954C109.674 31.92 109.691 31.9513 109.698 31.9854C109.705 32.0195 109.701 32.0549 109.688 32.087C109.674 32.1191 109.652 32.1466 109.623 32.1659C109.594 32.1852 109.56 32.1956 109.525 32.1956V32.1956Z" fill="#3F3D56"/>
<path d="M109.525 46.8496C109.49 46.8496 109.456 46.8393 109.427 46.82C109.398 46.8007 109.375 46.7732 109.362 46.7411C109.348 46.709 109.345 46.6736 109.351 46.6395C109.358 46.6054 109.375 46.574 109.4 46.5495L123.634 32.3737C123.668 32.3411 123.712 32.3228 123.759 32.323C123.806 32.3232 123.85 32.3417 123.883 32.3745C123.916 32.4073 123.935 32.4518 123.935 32.4982C123.935 32.5447 123.917 32.5893 123.884 32.6223L109.65 46.7981C109.633 46.8145 109.614 46.8274 109.592 46.8363C109.571 46.8451 109.548 46.8497 109.525 46.8496Z" fill="#3F3D56"/>
<path d="M50.0936 57.5553C52.911 56.921 56.1029 59.1157 56.2019 62.0621C56.2297 62.8908 55.9858 63.7611 55.3455 64.3249C54.8168 64.7903 54.0302 65.025 53.3468 64.7975C52.0317 64.3598 51.9614 62.5348 52.6669 61.5601C53.6221 60.2404 55.5145 60.015 57.0161 60.172C58.8519 60.3639 60.5967 61.1655 62.0609 62.2643C64.992 64.4638 66.8584 67.835 68.3691 71.0921C69.9156 74.4333 71.0401 77.9526 71.717 81.5694C71.8022 82.0237 71.8802 82.4792 71.9511 82.9359C71.9712 83.0028 72.0169 83.0592 72.0783 83.0928C72.1398 83.1264 72.2121 83.1346 72.2795 83.1155C72.346 83.0945 72.4018 83.0488 72.4354 82.9879C72.4689 82.927 72.4777 82.8556 72.4598 82.7885C71.8415 78.8416 70.6993 74.9941 69.0633 71.3469C67.4815 67.8171 65.4874 64.1556 62.3151 61.7999C60.7337 60.6256 58.8662 59.8084 56.8899 59.6337C55.2262 59.4866 53.256 59.8371 52.2214 61.2781C51.4052 62.415 51.4881 64.3043 52.751 65.0961C53.4454 65.5313 54.3276 65.4805 55.0486 65.1421C55.4312 64.9539 55.7681 64.6852 56.036 64.3545C56.3039 64.0237 56.4964 63.639 56.6001 63.2268C57.0485 61.5904 56.3676 59.8205 55.2001 58.6508C54.1043 57.55 52.6153 56.9264 51.0588 56.9165C50.684 56.9206 50.3108 56.9649 49.9455 57.0487C49.6129 57.1236 49.7616 57.6301 50.0936 57.5553V57.5553Z" fill="#CCCCCC"/>
<path d="M63.6808 89.9589L61.93 86.982L64.0889 85.7227L65.8397 88.6996V88.6997C66.0074 88.9848 66.0545 89.3245 65.9706 89.6442C65.8867 89.9639 65.6788 90.2373 65.3925 90.4043C65.1062 90.5713 64.765 90.6182 64.444 90.5347C64.123 90.4511 63.8485 90.244 63.6808 89.9589Z" fill="#ABABAB"/>
<path d="M57.8918 83.7712C58.7422 83.7712 59.4315 83.0848 59.4315 82.238C59.4315 81.3912 58.7422 80.7047 57.8918 80.7047C57.0415 80.7047 56.3522 81.3912 56.3522 82.238C56.3522 83.0848 57.0415 83.7712 57.8918 83.7712Z" fill="#ABABAB"/>
<path d="M70.4549 89.9589L68.7041 86.982L70.863 85.7227L72.6138 88.6995C72.7811 88.9846 72.8279 89.3242 72.7439 89.6436C72.66 89.963 72.4521 90.2362 72.166 90.4031C71.8799 90.57 71.539 90.6169 71.2182 90.5336C70.8973 90.4504 70.6228 90.2436 70.4549 89.9589Z" fill="#ABABAB"/>
<path d="M58.1844 85.3269C58.1854 84.463 58.5304 83.6349 59.1437 83.024C59.7571 82.4132 60.5887 82.0696 61.4561 82.0687H71.8131C72.1798 82.0691 72.5313 82.2143 72.7905 82.4725C73.0498 82.7307 73.1956 83.0807 73.196 83.4458V84.6195C73.1948 85.6709 72.7749 86.6788 72.0284 87.4223C71.2818 88.1657 70.2696 88.5839 69.2139 88.5851H61.4561C60.5887 88.5841 59.7571 88.2405 59.1437 87.6297C58.5304 87.0189 58.1854 86.1907 58.1844 85.3269Z" fill="#3F3D56"/>
<path d="M60.5728 90.3428V86.8929H63.0747V90.3428C63.0747 90.6732 62.9429 90.9901 62.7083 91.2237C62.4737 91.4573 62.1555 91.5886 61.8238 91.5886C61.492 91.5886 61.1738 91.4573 60.9392 91.2237C60.7046 90.9901 60.5728 90.6732 60.5728 90.3428Z" fill="#3F3D56"/>
<path d="M67.8327 90.3428V86.8929H70.3346V90.3428C70.3348 90.5065 70.3026 90.6687 70.2398 90.82C70.1771 90.9713 70.0849 91.1088 69.9688 91.2247C69.8526 91.3405 69.7146 91.4324 69.5627 91.4951C69.4109 91.5578 69.2481 91.5901 69.0837 91.5901C68.9193 91.5901 68.7565 91.5578 68.6046 91.4951C68.4527 91.4324 68.3148 91.3405 68.1986 91.2247C68.0824 91.1088 67.9903 90.9713 67.9275 90.82C67.8647 90.6687 67.8325 90.5065 67.8327 90.3428Z" fill="#3F3D56"/>
<path d="M78.012 76.6936C78.268 76.3774 78.6395 76.1754 79.045 76.1317C79.4504 76.088 79.8567 76.2063 80.1746 76.4606C80.4926 76.7149 80.6962 77.0845 80.7409 77.4882C80.7856 77.8918 80.6676 78.2967 80.4129 78.6138L77.8821 81.7519L75.4813 79.8316L78.012 76.6936Z" fill="#ABABAB"/>
<path d="M71.9157 82.8754L73.9432 80.3614C74.4362 79.7515 75.152 79.3613 75.9335 79.2763C76.7151 79.1914 77.4985 79.4186 78.1121 79.9081L78.7455 80.4148C79.4757 81.0002 79.9429 81.8501 80.0446 82.778C80.1464 83.706 79.8743 84.6362 79.2882 85.3647L77.6177 87.436C77.4332 87.6643 77.1652 87.8104 76.8726 87.8422C76.58 87.874 76.2866 87.7889 76.0569 87.6056L72.0861 84.4297C71.8568 84.2459 71.7101 83.979 71.6782 83.6876C71.6463 83.3962 71.7317 83.1041 71.9157 82.8754Z" fill="#3F3D56"/>
<path d="M78.3134 76.32C78.4004 76.2121 78.5079 76.1223 78.6298 76.0557C78.7517 75.9892 78.8856 75.9472 79.0238 75.9322C79.162 75.9172 79.3018 75.9294 79.4352 75.9682C79.5686 76.0069 79.6931 76.0715 79.8015 76.1582C79.9099 76.2449 80 76.352 80.0669 76.4734C80.1337 76.5948 80.1758 76.7281 80.1909 76.8657C80.206 77.0033 80.1937 77.1425 80.1548 77.2754C80.1158 77.4083 80.051 77.5322 79.9639 77.6402L77.1318 81.1518L75.4813 79.8316L78.3134 76.32Z" fill="#3F3D56"/>
<path d="M74.2562 82.1898L78.6077 85.6703C78.9249 85.9253 79.1275 86.2952 79.1712 86.6988C79.215 87.1024 79.0962 87.5069 78.8409 87.8234C78.5856 88.1399 78.2147 88.3427 77.8096 88.3873C77.4044 88.4318 76.998 88.3146 76.6795 88.0612L72.3279 84.5807L74.2562 82.1898Z" fill="#3F3D56"/>
<path d="M79.0303 87.9394C79.2549 87.6609 79.3111 87.3343 79.1557 87.2101C79.0003 87.0858 78.6922 87.2108 78.4676 87.4894C78.243 87.7679 78.1868 88.0944 78.3422 88.2187C78.4976 88.343 78.8057 88.2179 79.0303 87.9394Z" fill="#ABABAB"/>
<path d="M122.198 91.8375H0.176586C0.129753 91.8375 0.0848372 91.819 0.0517208 91.786C0.0186045 91.753 0 91.7083 0 91.6617C0 91.615 0.0186045 91.5703 0.0517208 91.5373C0.0848372 91.5044 0.129753 91.4858 0.176586 91.4858H122.198C122.245 91.4858 122.29 91.5044 122.323 91.5373C122.356 91.5703 122.374 91.615 122.374 91.6617C122.374 91.7083 122.356 91.753 122.323 91.786C122.29 91.819 122.245 91.8375 122.198 91.8375Z" fill="#CCCCCC"/>
</g>
<defs>
<clipPath id="clip0_431_558">
<rect width="131" height="91.8701" fill="white"/>
</clipPath>
</defs>
</svg>
