<svg width="141" height="47" viewBox="0 0 141 47" fill="none" xmlns="http://www.w3.org/2000/svg">
<g clip-path="url(#clip0_431_740)">
<path d="M8.8273 34.6405C10.3581 34.1439 11.7341 33.2606 12.8228 32.0759C13.9114 30.8912 14.676 29.4449 15.0429 27.8764C15.9396 23.8326 14.0603 19.7385 12.2306 16.0148L6.81888 4.99999L4.9424 10.7865C3.59276 14.948 2.22742 19.222 2.4348 23.5966C2.64217 27.9711 4.76439 32.5371 8.72145 34.4171" fill="#8F6F55"/>
<path d="M18.8016 46.4144C15.5047 43.1393 12.1572 39.8279 9.68267 35.8619C7.48434 32.3402 6.03163 28.3705 6.05381 24.1862C6.06781 21.9681 6.46829 19.7706 7.23724 17.6925C7.43742 17.1504 8.26595 17.494 8.06672 18.0339C6.73993 21.6345 6.59119 25.5673 7.64195 29.2652C8.81893 33.3708 11.253 36.9665 14.0318 40.1593C15.7122 42.0901 17.5275 43.8968 19.3421 45.7001C19.4335 45.7746 19.4933 45.8809 19.5094 45.9976C19.5255 46.1142 19.4968 46.2325 19.4291 46.3286C19.357 46.4226 19.2506 46.4843 19.1331 46.5002C19.0156 46.5162 18.8964 46.4851 18.8014 46.4137L18.8016 46.4144Z" fill="#464646"/>
<path d="M17.9168 37.7911C19.0368 38.1844 20.2382 38.2827 21.4053 38.0765C22.5724 37.8704 23.6659 37.3666 24.5803 36.6139C26.9094 34.651 27.6304 31.4195 28.2152 28.4269L29.9469 19.5755L26.2669 22.1189C23.6202 23.948 20.9136 25.835 19.0865 28.4845C17.2595 31.1341 16.4695 34.7483 17.9552 37.613" fill="#8F6F55"/>
<path d="M18.9943 49.5986C18.1341 43.4797 17.2947 36.5901 21.1271 31.253C22.1937 29.7706 23.5342 28.5068 25.0765 27.5296C25.5621 27.2209 25.9867 28.012 25.5022 28.3202C22.926 29.9702 20.9991 32.4598 20.046 35.37C19.1235 38.1635 19.0215 41.1447 19.2351 44.0599C19.3659 45.8458 19.6165 47.62 19.8659 49.3925C19.9457 49.959 19.0749 50.1716 18.9943 49.5986Z" fill="#464646"/>
<path d="M47.1338 38.6941C47.7888 38.9251 48.4921 38.983 49.176 38.8621C49.8598 38.7413 50.5011 38.4458 51.038 38.0042C52.4055 36.8527 52.8344 34.9564 53.1831 33.2L54.215 28.0046L52.0547 29.4968C50.5011 30.5699 48.9126 31.6774 47.8369 33.2317C46.7613 34.786 46.2921 36.9079 47.156 38.5898" fill="#8F6F55"/>
<path d="M47.4673 45.3457C47.1954 43.3585 46.9156 41.3456 47.1068 39.3371C47.2762 37.5533 47.8188 35.8114 48.9232 34.3825C49.5095 33.6257 50.2228 32.9772 51.0312 32.4662C51.242 32.3328 51.436 32.6678 51.2261 32.8007C49.8273 33.6875 48.7454 34.9969 48.1364 36.5403C47.4637 38.2565 47.3557 40.1275 47.4715 41.9507C47.5416 43.0532 47.6904 44.1485 47.8399 45.2425C47.8517 45.292 47.8443 45.3441 47.8193 45.3883C47.7942 45.4325 47.7534 45.4656 47.7049 45.4808C47.6556 45.4941 47.6029 45.4874 47.5585 45.462C47.514 45.4367 47.4813 45.3948 47.4674 45.3454L47.4673 45.3457Z" fill="#464646"/>
<path d="M49.4244 42.157C49.7053 42.5855 50.0915 42.9341 50.5457 43.1694C51 43.4046 51.5069 43.5185 52.0178 43.5002C53.3309 43.4377 54.4252 42.5187 55.4102 41.6459L58.3242 39.0649L56.3957 38.9723C55.0088 38.9056 53.5861 38.8431 52.2651 39.2727C50.9441 39.7022 49.7258 40.7344 49.4843 42.106" fill="#8F6F55"/>
<path d="M46.6987 46.4881C48.0078 44.1646 49.526 41.5823 52.239 40.7569C52.9933 40.5282 53.7843 40.4463 54.5692 40.5155C54.8167 40.537 54.7549 40.9195 54.5079 40.8982C53.1921 40.7886 51.8788 41.1372 50.7892 41.8852C49.7406 42.6011 48.9241 43.5966 48.2332 44.6521C47.8099 45.2988 47.4307 45.9728 47.0516 46.6459C46.9305 46.8611 46.5762 46.7057 46.6987 46.4881Z" fill="#464646"/>
<path d="M127.614 41.3145C121.506 39.7992 125.731 32.3387 126.826 28.5166C128.619 32.2477 131.946 38.0121 127.647 41.213" fill="#8F6F55"/>
<path d="M124 46.9082C126.941 43.4022 129.839 38.4836 127.353 33.9723C127.237 33.7515 126.901 33.9446 127.017 34.1646C129.412 38.5293 126.545 43.242 123.728 46.6325C123.694 46.6691 123.675 46.7176 123.675 46.7678C123.676 46.818 123.696 46.866 123.731 46.9017C123.766 46.9374 123.814 46.958 123.864 46.9592C123.914 46.9604 123.963 46.942 124 46.908L124 46.9082Z" fill="#464646"/>
<path d="M108.639 42.1571C105.872 45.8836 102.018 40.8939 99.7395 39.065C102.779 38.9028 107.635 38.2743 108.579 42.1061" fill="#8F6F55"/>
<path d="M111.365 46.488C109.801 43.484 107.303 40.0866 103.494 40.5156C103.247 40.5369 103.309 40.9195 103.556 40.8982C107.173 40.5226 109.527 43.7862 111.012 46.6459C111.133 46.861 111.488 46.7056 111.365 46.488Z" fill="#464646"/>
<path d="M107.052 35.1077H60.172C60.1244 35.1077 60.0787 35.0887 60.045 35.0549C60.0114 35.0211 59.9924 34.9753 59.9924 34.9275C59.9924 34.8797 60.0114 34.8339 60.045 34.8001C60.0787 34.7663 60.1244 34.7473 60.172 34.7473H107.052C107.1 34.7473 107.146 34.7663 107.179 34.8001C107.213 34.8339 107.232 34.8797 107.232 34.9275C107.232 34.9753 107.213 35.0211 107.179 35.0549C107.146 35.0887 107.1 35.1077 107.052 35.1077Z" fill="#CACACA"/>
<path d="M84.2742 4.85244L83.9655 0.997966C83.9363 0.915678 83.887 0.842057 83.8221 0.783836C83.7572 0.725615 83.6787 0.684656 83.5939 0.664709C83.5092 0.644762 83.4208 0.646464 83.3368 0.669658C83.2529 0.692852 83.176 0.736798 83.1134 0.797473L79.3503 4.334C78.1616 4.08124 76.9395 4.02606 75.7329 4.17067L75.6379 0.371099C75.6124 0.286765 75.5661 0.210263 75.5032 0.148721C75.4403 0.0871791 75.363 0.0425952 75.2783 0.0191191C75.1936 -0.00435701 75.1044 -0.00596005 75.019 0.0144561C74.9335 0.0348722 74.8546 0.0766454 74.7896 0.135887L71.7534 3.5112C69.6491 4.64326 67.9617 6.42185 66.9386 8.58618C65.9154 10.7505 65.6104 13.1867 66.0683 15.5376C66.5261 17.8885 67.7227 20.0304 69.4826 21.6494C71.2425 23.2683 73.4731 24.279 75.8474 24.5333C78.2217 24.7877 80.6148 24.2722 82.6758 23.0626C84.7368 21.853 86.3572 20.0129 87.2996 17.8119C88.242 15.611 88.4566 13.1651 87.9122 10.8329C87.3677 8.50065 86.0927 6.40473 84.2742 4.85244H84.2742Z" fill="#464646"/>
<path d="M85.6692 20.4942C89.779 20.4287 94.9494 34.8969 85.2101 34.9719C80.1706 35.0107 71.249 35.9967 71.249 35.9967C71.249 35.9967 64.3138 25.5554 67.4068 19.0594L85.6692 20.4942Z" fill="#464646"/>
<path d="M76.6292 28.1402V35.6363H80.1227L82.8946 28.0034" fill="#464646"/>
<path d="M80.1227 35.7729H76.6291C76.593 35.7729 76.5584 35.7585 76.5328 35.7329C76.5073 35.7073 76.4929 35.6725 76.4929 35.6363V28.1401C76.4929 28.1039 76.5073 28.0691 76.5328 28.0435C76.5584 28.0179 76.593 28.0035 76.6291 28.0035C76.6652 28.0035 76.6999 28.0179 76.7254 28.0435C76.751 28.0691 76.7653 28.1039 76.7653 28.1401V35.4997H80.0274L82.7666 27.9567C82.7789 27.9227 82.8043 27.8949 82.837 27.8796C82.8698 27.8643 82.9072 27.8627 82.9412 27.8751C82.9751 27.8875 83.0028 27.9129 83.018 27.9458C83.0333 27.9786 83.0349 28.0162 83.0225 28.0502L80.2507 35.6831C80.2412 35.7094 80.2237 35.7322 80.2008 35.7482C80.178 35.7643 80.1507 35.7729 80.1227 35.7729Z" fill="white"/>
<path d="M85.6867 36.1334C87.2665 36.1334 88.5471 35.7051 88.5471 35.1769C88.5471 34.6487 87.2665 34.2205 85.6867 34.2205C84.107 34.2205 82.8264 34.6487 82.8264 35.1769C82.8264 35.7051 84.107 36.1334 85.6867 36.1334Z" fill="#464646"/>
<path d="M84.2565 34.3571C84.2274 34.357 84.199 34.3477 84.1756 34.3303C84.1522 34.3129 84.1349 34.2885 84.1264 34.2605C84.1113 34.2115 82.6645 29.3437 86.0923 27.8777C86.1088 27.8706 86.1265 27.8668 86.1444 27.8666C86.1624 27.8664 86.1802 27.8697 86.1968 27.8764C86.2134 27.883 86.2286 27.893 86.2414 27.9055C86.2542 27.9181 86.2644 27.9331 86.2715 27.9496C86.2785 27.9662 86.2822 27.984 86.2824 28.0019C86.2825 28.0199 86.2792 28.0378 86.2725 28.0544C86.2657 28.0711 86.2558 28.0863 86.2432 28.0991C86.2306 28.1119 86.2157 28.1221 86.1991 28.1291C82.9943 29.4997 84.3724 34.1336 84.3867 34.1802C84.3974 34.2148 84.3938 34.2523 84.3769 34.2843C84.36 34.3163 84.3311 34.3403 84.2966 34.351C84.2836 34.355 84.2701 34.357 84.2565 34.3571Z" fill="white"/>
<path d="M89.1086 33.1082C89.0894 33.0806 89.0755 33.0516 89.0588 33.0233C88.91 33.0288 88.7611 33.0343 88.6123 33.0398L89.1086 33.1082Z" fill="#464646"/>
<path d="M103.951 28.777C102.836 26.9889 100.107 26.4921 98.4369 27.773C97.6831 28.351 97.175 29.1866 96.531 29.8856C95.4476 31.0539 94.0026 31.8211 92.4303 32.0627C91.3357 32.2273 90.1781 32.1379 89.1673 32.59C88.187 33.0284 87.4475 34.28 87.9811 35.1856C91.7436 35.0465 95.506 34.9074 99.2685 34.7683C100.351 34.7283 101.472 34.6788 102.44 34.191C104.319 33.2442 105.067 30.5651 103.951 28.777Z" fill="#464646"/>
<path d="M76.1745 23.5974C74.6291 23.6116 73.0975 23.305 71.6758 22.6969C68.7076 21.4043 67.3472 19.2232 67.2907 19.131C67.2721 19.1001 67.2665 19.0631 67.275 19.0281C67.2834 18.9931 67.3054 18.9628 67.336 18.9439C67.3666 18.9251 67.4034 18.9191 67.4384 18.9273C67.4734 18.9355 67.5037 18.9573 67.5228 18.9879C68.5981 20.5198 70.0789 21.7197 71.798 22.4521C74.4709 23.6114 79.0353 24.1923 85.6008 20.376C85.6163 20.367 85.6334 20.3611 85.6511 20.3586C85.6689 20.3562 85.687 20.3573 85.7043 20.3619C85.7216 20.3665 85.7379 20.3745 85.7521 20.3854C85.7664 20.3963 85.7784 20.41 85.7873 20.4255C85.7963 20.4411 85.8022 20.4583 85.8045 20.4761C85.8069 20.4939 85.8057 20.512 85.8011 20.5294C85.7964 20.5468 85.7884 20.5631 85.7775 20.5773C85.7666 20.5916 85.7529 20.6035 85.7374 20.6125C81.8834 22.8527 78.7013 23.5974 76.1745 23.5974Z" fill="white"/>
<path d="M76.7653 16.6627C76.5125 16.6624 76.2702 16.5615 76.0915 16.3822C75.9127 16.2029 75.8122 15.9598 75.8119 15.7062C75.8119 15.67 75.8262 15.6352 75.8518 15.6096C75.8773 15.584 75.912 15.5696 75.9481 15.5696C75.9842 15.5696 76.0189 15.584 76.0444 15.6096C76.0699 15.6352 76.0843 15.67 76.0843 15.7062C76.0843 15.8874 76.156 16.0612 76.2838 16.1893C76.4115 16.3174 76.5847 16.3894 76.7653 16.3894C76.9459 16.3894 77.1192 16.3174 77.2469 16.1893C77.3746 16.0612 77.4463 15.8874 77.4463 15.7062C77.4463 15.67 77.4607 15.6352 77.4862 15.6096C77.5118 15.584 77.5464 15.5696 77.5825 15.5696C77.6187 15.5696 77.6533 15.584 77.6788 15.6096C77.7044 15.6352 77.7187 15.67 77.7187 15.7062C77.7185 15.9598 77.6179 16.2029 77.4392 16.3822C77.2604 16.5615 77.0181 16.6624 76.7653 16.6627Z" fill="white"/>
<path d="M75.4712 35.2C75.4423 35.2 75.4142 35.1907 75.3909 35.1736C75.3676 35.1565 75.3503 35.1324 75.3415 35.1048L73.1622 28.2499C73.1567 28.2328 73.1546 28.2147 73.1561 28.1968C73.1575 28.1789 73.1625 28.1614 73.1707 28.1454C73.1789 28.1294 73.1902 28.1152 73.2039 28.1036C73.2175 28.092 73.2334 28.0832 73.2505 28.0777C73.2675 28.0723 73.2855 28.0703 73.3034 28.0718C73.3213 28.0733 73.3386 28.0784 73.3546 28.0866C73.3705 28.0949 73.3846 28.1063 73.3961 28.12C73.4076 28.1338 73.4164 28.1497 73.4217 28.1669L75.601 35.0218C75.6075 35.0423 75.6091 35.064 75.6056 35.0852C75.6022 35.1064 75.5938 35.1265 75.5812 35.1439C75.5685 35.1612 75.552 35.1754 75.5329 35.1851C75.5138 35.1949 75.4927 35.1999 75.4712 35.2Z" fill="white"/>
<path d="M78.3316 37.0898C79.9113 37.0898 81.192 36.6616 81.192 36.1333C81.192 35.6051 79.9113 35.1769 78.3316 35.1769C76.7519 35.1769 75.4713 35.6051 75.4713 36.1333C75.4713 36.6616 76.7519 37.0898 78.3316 37.0898Z" fill="#464646"/>
<path d="M73.7007 36.9532C75.2804 36.9532 76.561 36.525 76.561 35.9967C76.561 35.4685 75.2804 35.0403 73.7007 35.0403C72.1209 35.0403 70.8403 35.4685 70.8403 35.9967C70.8403 36.525 72.1209 36.9532 73.7007 36.9532Z" fill="#464646"/>
<path d="M76.8334 14.4187C77.4352 14.4187 77.9231 14.2305 77.9231 13.9983C77.9231 13.7661 77.4352 13.5779 76.8334 13.5779C76.2316 13.5779 75.7438 13.7661 75.7438 13.9983C75.7438 14.2305 76.2316 14.4187 76.8334 14.4187Z" fill="white"/>
<path d="M69.5066 14.0291C69.8184 13.6546 70.2084 13.3534 70.649 13.1467C71.0895 12.94 71.57 12.8328 72.0564 12.8328C72.5428 12.8328 73.0232 12.94 73.4638 13.1467C73.9044 13.3534 74.2944 13.6546 74.6062 14.0291C75.1344 13.5232 75.5013 12.8715 75.6603 12.1564C75.8194 11.4414 75.7635 10.6951 75.4998 10.0119C75.236 9.32869 74.7762 8.7393 74.1786 8.31825C73.5809 7.89719 72.8722 7.66338 72.1421 7.64638C71.4119 7.62938 70.6932 7.82996 70.0767 8.22275C69.4602 8.61554 68.9736 9.1829 68.6786 9.85309C68.3835 10.5233 68.2932 11.2662 68.419 11.9879C68.5448 12.7095 68.8811 13.3776 69.3854 13.9075C69.4249 13.949 69.4653 13.9895 69.5066 14.0291Z" fill="white"/>
<path d="M79.4767 14.0291C79.7885 13.6546 80.1785 13.3534 80.6191 13.1467C81.0596 12.94 81.5401 12.8328 82.0265 12.8328C82.5129 12.8328 82.9933 12.94 83.4339 13.1467C83.8745 13.3534 84.2645 13.6546 84.5763 14.0291C85.1046 13.5232 85.4714 12.8715 85.6305 12.1564C85.7895 11.4414 85.7337 10.6951 85.4699 10.0119C85.2061 9.3287 84.7464 8.73931 84.1487 8.31825C83.551 7.8972 82.8423 7.66338 82.1122 7.64638C81.382 7.62938 80.6633 7.82996 80.0468 8.22275C79.4303 8.61554 78.9437 9.1829 78.6487 9.85309C78.3536 10.5233 78.2633 11.2662 78.3891 11.9879C78.5149 12.7095 78.8512 13.3776 79.3555 13.9075C79.395 13.949 79.4354 13.9895 79.4767 14.0291Z" fill="white"/>
<path d="M70.4375 12.9843C71.139 12.9843 71.7077 12.4138 71.7077 11.71C71.7077 11.0063 71.139 10.4358 70.4375 10.4358C69.7359 10.4358 69.1672 11.0063 69.1672 11.71C69.1672 12.4138 69.7359 12.9843 70.4375 12.9843Z" fill="#464646"/>
<path d="M80.4072 12.9843C81.1087 12.9843 81.6774 12.4138 81.6774 11.71C81.6774 11.0063 81.1087 10.4358 80.4072 10.4358C79.7057 10.4358 79.137 11.0063 79.137 11.71C79.137 12.4138 79.7057 12.9843 80.4072 12.9843Z" fill="#464646"/>
<path d="M82.1453 16.7256C82.76 16.7256 83.2584 16.2257 83.2584 15.609C83.2584 14.9923 82.76 14.4924 82.1453 14.4924C81.5306 14.4924 81.0322 14.9923 81.0322 15.609C81.0322 16.2257 81.5306 16.7256 82.1453 16.7256Z" fill="#CF8936"/>
<path d="M72.0867 16.7256C72.7014 16.7256 73.1998 16.2257 73.1998 15.609C73.1998 14.9923 72.7014 14.4924 72.0867 14.4924C71.472 14.4924 70.9736 14.9923 70.9736 15.609C70.9736 16.2257 71.472 16.7256 72.0867 16.7256Z" fill="#CF8936"/>
</g>
<defs>
<clipPath id="clip0_431_740">
<rect width="141" height="47" fill="white"/>
</clipPath>
</defs>
</svg>
