<svg width="95" height="57" viewBox="0 0 95 57" fill="none" xmlns="http://www.w3.org/2000/svg">
<path d="M18.9691 52.061C29.4455 52.061 37.9383 43.6372 37.9383 33.2459C37.9383 22.8547 29.4455 14.4309 18.9691 14.4309C8.49277 14.4309 0 22.8547 0 33.2459C0 43.6372 8.49277 52.061 18.9691 52.061Z" fill="#ECECEC"/>
<path d="M29.165 35.2843C29.165 35.8911 29.1413 36.4885 29.0939 37.0764C29.0876 37.1721 29.0797 37.2677 29.0702 37.3634C28.4094 44.6071 24.3374 50.236 19.3406 50.5558H19.339C19.2837 50.5605 19.2284 50.5637 19.173 50.5652C19.0782 50.57 18.9849 50.5715 18.8901 50.5715C18.5557 50.572 18.2218 50.5479 17.891 50.4994C17.8721 50.4963 17.8531 50.4931 17.8341 50.49C12.9765 49.7531 9.11939 43.9815 8.66255 36.7362C8.65939 36.686 8.65623 36.6358 8.65465 36.5857C8.62777 36.1561 8.6146 35.7223 8.61513 35.2843C8.61513 26.841 13.2151 19.9971 18.8901 19.9971C24.565 19.9971 29.165 26.841 29.165 35.2843Z" fill="#464646"/>
<path d="M18.5739 29.4046C25.7328 29.4046 31.5362 23.6483 31.5362 16.5476C31.5362 9.44693 25.7328 3.69067 18.5739 3.69067C11.4151 3.69067 5.61169 9.44693 5.61169 16.5476C5.61169 23.6483 11.4151 29.4046 18.5739 29.4046Z" fill="#464646"/>
<path d="M18.574 27.8366C20.0582 27.8366 21.2613 27.5558 21.2613 27.2094C21.2613 26.8631 20.0582 26.5823 18.574 26.5823C17.0899 26.5823 15.8867 26.8631 15.8867 27.2094C15.8867 27.5558 17.0899 27.8366 18.574 27.8366Z" fill="#171717"/>
<path d="M14.464 20.781C15.0751 20.781 15.5705 20.2896 15.5705 19.6835C15.5705 19.0773 15.0751 18.5859 14.464 18.5859C13.8528 18.5859 13.3574 19.0773 13.3574 19.6835C13.3574 20.2896 13.8528 20.781 14.464 20.781Z" fill="#171717"/>
<path d="M22.6839 20.781C23.295 20.781 23.7904 20.2896 23.7904 19.6835C23.7904 19.0773 23.295 18.5859 22.6839 18.5859C22.0728 18.5859 21.5774 19.0773 21.5774 19.6835C21.5774 20.2896 22.0728 20.781 22.6839 20.781Z" fill="#171717"/>
<path opacity="0.1" d="M18.732 45.5541C18.733 46.2689 18.6801 46.9827 18.5739 47.6896C18.4338 48.6476 18.1856 49.5869 17.8341 50.4899C12.9765 49.753 9.11941 43.9815 8.66257 36.7361C8.65941 36.6859 8.65624 36.6358 8.65466 36.5856C9.59364 35.9036 10.6543 35.5194 11.7767 35.5194C15.1105 35.5194 17.8958 38.903 18.5739 43.4202C18.6801 44.1266 18.733 44.8399 18.732 45.5541Z" fill="black"/>
<path d="M18.732 46.9654C18.7329 47.6801 18.6801 48.3939 18.5739 49.1009C18.0459 52.613 16.2439 55.4415 13.8996 56.5234C13.4548 56.7312 12.982 56.8738 12.4959 56.9467C12.2579 56.9826 12.0174 57.0005 11.7766 57C11.0964 56.9992 10.4236 56.8588 9.80069 56.5877C9.30038 56.373 8.83271 56.0901 8.4112 55.7473C6.27084 54.0382 4.82129 50.7456 4.82129 46.9654C4.82129 41.4228 7.93539 36.9307 11.7766 36.9307C15.1105 36.9307 17.8958 40.3142 18.5739 44.8314C18.6801 45.5378 18.7329 46.2511 18.732 46.9654Z" fill="#464646"/>
<path opacity="0.1" d="M29.0939 37.0765C29.0876 37.1721 29.0797 37.2678 29.0702 37.3634C28.4095 44.6072 24.3374 50.236 19.3406 50.5559H19.3391C18.9747 49.6326 18.718 48.6709 18.574 47.6897C18.3632 46.2743 18.3632 44.8358 18.574 43.4203C19.2521 38.9031 22.0374 35.5195 25.3712 35.5195C26.7402 35.5195 28.0174 36.0902 29.0939 37.0765Z" fill="black"/>
<path d="M32.3266 46.9653C32.3266 51.1203 30.5767 54.6842 28.0838 56.2082C27.6664 56.4665 27.2154 56.6669 26.7433 56.804C25.8573 57.0627 24.9152 57.0654 24.0276 56.8119C23.4967 56.6602 22.992 56.4297 22.5306 56.1283C20.5404 54.8426 19.0466 52.2461 18.574 49.1008C18.3632 47.6854 18.3632 46.2469 18.574 44.8314C19.2521 40.3142 22.0374 36.9307 25.3712 36.9307C29.2125 36.9307 32.3266 41.4227 32.3266 46.9653Z" fill="#464646"/>
<path d="M18.574 19.2131C14.6454 19.2131 11.4606 21.8597 11.4606 24.5441C11.4606 26.1183 12.5568 27.517 14.255 28.4052C14.8872 27.2516 16.5818 26.4256 18.574 26.4256C20.5662 26.4256 22.2608 27.2516 22.893 28.4052C24.5912 27.517 25.6874 26.1183 25.6874 24.5441C25.6874 21.8597 22.5026 19.2131 18.574 19.2131Z" fill="#8F6F55"/>
<path d="M18.2578 26.4255C19.3054 26.4255 20.1547 25.7235 20.1547 24.8576C20.1547 23.9917 19.3054 23.2897 18.2578 23.2897C17.2101 23.2897 16.3608 23.9917 16.3608 24.8576C16.3608 25.7235 17.2101 26.4255 18.2578 26.4255Z" fill="#464646"/>
<path d="M5.69071 19.2915C7.17486 19.2915 8.37801 17.01 8.37801 14.1957C8.37801 11.3814 7.17486 9.09998 5.69071 9.09998C4.20656 9.09998 3.00342 11.3814 3.00342 14.1957C3.00342 17.01 4.20656 19.2915 5.69071 19.2915Z" fill="#8F6F55"/>
<path d="M30.6668 19.2915C32.1509 19.2915 33.3541 17.01 33.3541 14.1957C33.3541 11.3814 32.1509 9.09998 30.6668 9.09998C29.1826 9.09998 27.9795 11.3814 27.9795 14.1957C27.9795 17.01 29.1826 19.2915 30.6668 19.2915Z" fill="#8F6F55"/>
<path d="M21.4984 2.04434C21.1411 2.04408 20.7944 2.16449 20.5153 2.38574C20.2803 2.00376 19.9402 1.69631 19.5351 1.49957C19.1299 1.30283 18.6765 1.22499 18.2282 1.27522C17.7799 1.32545 17.3554 1.50165 17.0047 1.78308C16.654 2.06452 16.3916 2.43948 16.2485 2.86382C16.0807 2.55746 15.8148 2.31531 15.4927 2.17565C15.1706 2.03598 14.8108 2.00677 14.4702 2.09262C14.1295 2.17847 13.8274 2.3745 13.6116 2.64971C13.3958 2.92492 13.2787 3.26362 13.2787 3.61226C13.2787 3.9609 13.3958 4.29959 13.6116 4.5748C13.8274 4.85001 14.1295 5.04604 14.4702 5.13189C14.8108 5.21775 15.1706 5.18853 15.4927 5.04887C15.8148 4.9092 16.0807 4.66705 16.2485 4.36069C16.3916 4.78504 16.654 5.15999 17.0047 5.44143C17.3554 5.72286 17.7799 5.89907 18.2282 5.9493C18.6765 5.99952 19.1299 5.92168 19.5351 5.72495C19.9402 5.52821 20.2803 5.22075 20.5153 4.83877C20.7128 4.99452 20.945 5.10111 21.1925 5.14961C21.4401 5.19811 21.6957 5.18712 21.9381 5.11756C22.1804 5.048 22.4025 4.92189 22.5857 4.74978C22.7688 4.57766 22.9078 4.36455 22.9909 4.12826C23.074 3.89197 23.0989 3.63938 23.0635 3.3916C23.028 3.14382 22.9333 2.90806 22.7871 2.70404C22.641 2.50002 22.4478 2.33367 22.2236 2.21889C21.9993 2.10412 21.7507 2.04427 21.4984 2.04434Z" fill="#464646"/>
<path d="M9.80074 50.8066V56.5876C9.30043 56.3729 8.83276 56.09 8.41125 55.7472L9.80074 50.8066Z" fill="#171717"/>
<path d="M13.8997 56.5234C13.4549 56.7312 12.9821 56.8738 12.496 56.9468L13.2358 51.655L13.8997 56.5234Z" fill="#171717"/>
<path d="M24.0276 50.8066V56.8118C23.4967 56.6601 22.992 56.4296 22.5306 56.1282L24.0276 50.8066Z" fill="#171717"/>
<path d="M28.0838 56.2081C27.6664 56.4664 27.2154 56.6668 26.7433 56.804L27.4625 51.6549L28.0838 56.2081Z" fill="#171717"/>
<path d="M14.7512 28.8257C14.9453 28.8257 15.1027 28.6696 15.1027 28.4771C15.1027 28.2845 14.9453 28.1284 14.7512 28.1284C14.557 28.1284 14.3997 28.2845 14.3997 28.4771C14.3997 28.6696 14.557 28.8257 14.7512 28.8257Z" fill="white"/>
<path d="M23.0114 28.8257C23.2055 28.8257 23.3629 28.6696 23.3629 28.4771C23.3629 28.2845 23.2055 28.1284 23.0114 28.1284C22.8173 28.1284 22.6599 28.2845 22.6599 28.4771C22.6599 28.6696 22.8173 28.8257 23.0114 28.8257Z" fill="white"/>
<path d="M77.6886 3.92017C68.1278 3.92017 60.3773 11.6078 60.3773 21.0909C60.373 23.9395 61.0864 26.744 62.4528 29.2495C61.28 29.7017 60.246 30.4488 59.4525 31.4176C58.659 32.3863 58.1335 33.5432 57.9274 34.7744C57.7214 36.0057 57.842 37.269 58.2774 38.44C58.7128 39.611 59.448 40.6494 60.4107 41.4532C61.3734 42.2569 62.5305 42.7983 63.768 43.0241C65.0056 43.2498 66.2811 43.1522 67.4692 42.7408C68.6572 42.3293 69.7167 41.6183 70.5437 40.6775C71.3707 39.7368 71.9365 38.5987 72.1856 37.3753C73.9596 37.9641 75.818 38.2634 77.6886 38.2617C87.2495 38.2617 95 30.5741 95 21.0909C95 11.6078 87.2495 3.92017 77.6886 3.92017Z" fill="#F2F2F2"/>
<path opacity="0.1" d="M77.3424 30.1819C82.0602 30.1819 85.8847 29.5415 85.8847 28.7516C85.8847 27.9617 82.0602 27.3213 77.3424 27.3213C72.6247 27.3213 68.8002 27.9617 68.8002 28.7516C68.8002 29.5415 72.6247 30.1819 77.3424 30.1819Z" fill="black"/>
<path d="M71.6491 14.4227C75.041 14.4227 77.7907 11.6953 77.7907 8.33098C77.7907 4.96661 75.041 2.23926 71.6491 2.23926C68.2571 2.23926 65.5074 4.96661 65.5074 8.33098C65.5074 11.6953 68.2571 14.4227 71.6491 14.4227Z" fill="#55758F"/>
<path d="M88.4591 18.0376C88.463 25.9788 83.7047 28.7535 77.8339 28.7563C77.6976 28.7564 77.5619 28.7549 77.4268 28.752C77.1547 28.7463 76.8855 28.7341 76.619 28.7155C71.3203 28.3459 67.2019 25.4331 67.1982 18.0478C67.1945 10.4049 77.0379 0.754957 77.7762 0.04144C77.7768 0.04144 77.7768 0.0414399 77.7775 0.0407914C77.8055 0.0135972 77.8199 0 77.8199 0C77.8199 0 88.4552 10.097 88.4591 18.0376Z" fill="#8F6F55"/>
<path d="M77.4465 27.5418L81.3318 22.1517L77.437 28.1333L77.4268 28.752C77.1547 28.7463 76.8855 28.7341 76.6191 28.7155L77.034 20.7708L77.0308 20.7093L77.0379 20.6977L77.0774 19.947L73.1669 13.9542L77.0888 19.3846L77.0987 19.5438L77.4122 13.5413L74.064 7.3483L77.4528 12.4864L77.7762 0.0414155L77.7775 0L77.7775 0.040767L77.7275 9.8549L81.0551 5.9626L77.7135 10.7001L77.6281 16.0748L80.7358 10.9154L77.6161 16.8649L77.5686 19.8535L82.0788 12.6718L77.5515 20.8961L77.4465 27.5418Z" fill="#464646"/>
</svg>
