<svg width="53" height="59" viewBox="0 0 53 59" fill="none" xmlns="http://www.w3.org/2000/svg">
<g clip-path="url(#clip0_431_775)">
<path d="M35.1415 59C43.0526 59 49.4658 57.9041 49.4658 56.5521C49.4658 55.2002 43.0526 54.1042 35.1415 54.1042C27.2304 54.1042 20.8173 55.2002 20.8173 56.5521C20.8173 57.9041 27.2304 59 35.1415 59Z" fill="#F2F2F2"/>
<path d="M32.4755 58.2866C22.5467 58.2866 14.7692 56.9286 14.7692 55.1951C14.7692 53.4615 22.5467 52.1035 32.4755 52.1035C42.4043 52.1035 50.1819 53.4615 50.1819 55.1951C50.1819 56.9286 42.4043 58.2866 32.4755 58.2866ZM32.4755 52.2621C22.964 52.2621 14.9283 53.6052 14.9283 55.1951C14.9283 56.7849 22.964 58.128 32.4755 58.128C41.9871 58.128 50.0227 56.7849 50.0227 55.1951C50.0227 53.6052 41.9871 52.2621 32.4755 52.2621Z" fill="#F2F2F2"/>
<path d="M53 31.6572C53.0011 33.2419 52.8449 34.8228 52.5337 36.3769C52.4859 36.6163 52.4342 36.8547 52.3785 37.092C52.3459 37.2346 52.3117 37.3768 52.2759 37.5184C52.2528 37.6104 52.2289 37.7023 52.2042 37.7943C51.3186 41.1208 49.7272 44.2195 47.5374 46.8814C45.3475 49.5432 42.6101 51.7064 39.5098 53.225C38.4923 53.7241 37.4402 54.1498 36.3616 54.4989C36.1977 54.552 36.0329 54.6035 35.8674 54.6535H35.8666C33.6032 55.3337 31.2517 55.6782 28.8875 55.6761C28.5485 55.6761 28.2143 55.6684 27.8848 55.6531C26.993 55.6143 26.1047 55.516 25.2261 55.359C14.428 53.4153 9.13835 42.8232 4.77502 31.6572C4.66679 31.3805 4.56042 31.1057 4.45591 30.8328C4.43044 30.7654 4.40498 30.698 4.37951 30.6306C-7.22632 0.0608573 5.35993 -7.67512 28.8875 7.6383C40.0358 14.8939 53 18.3921 53 31.6572Z" fill="#F2F2F2"/>
<path d="M36.3337 46.0009L36.2234 45.8867C36.2408 45.8701 37.9627 44.19 38.6185 41.0506C39.2242 38.1511 39.0185 33.3771 34.5989 27.0996C31.2093 22.285 29.8376 18.0786 30.522 14.5973C31.1232 11.5389 33.1679 10.1953 33.1885 10.1821L33.2748 10.3154C33.2548 10.3282 31.2636 11.6401 30.6772 14.6327C30.0038 18.0692 31.3671 22.233 34.7292 27.0085C36.6954 29.8013 38.0044 32.5363 38.6196 35.1374C39.1126 37.2219 39.164 39.2257 38.7722 41.093C38.1042 44.2766 36.3514 45.9841 36.3337 46.0009Z" fill="#F2F2F2"/>
<path d="M6.54407 27.417C5.77095 28.507 5.07328 29.6483 4.45591 30.8328C4.43045 30.7654 4.40498 30.698 4.37952 30.6306C4.98546 29.4866 5.66489 28.3827 6.41356 27.3258C9.77578 22.5498 11.139 18.3865 10.4657 14.9502C9.87923 11.9569 7.88816 10.645 7.86827 10.6323L7.95421 10.4991C7.9749 10.5126 10.0201 11.8563 10.6209 14.9145C11.3053 18.396 9.93335 22.6021 6.54407 27.417Z" fill="#F2F2F2"/>
<path d="M19.4604 53.3731L19.35 53.2589C19.3719 53.238 21.5428 51.1204 22.3702 47.1633C23.1342 43.5092 22.8762 37.493 17.3077 29.5836C14.9811 26.2789 13.3944 23.1565 12.5918 20.3034C11.936 17.9721 11.7972 15.8048 12.1792 13.8619C12.9343 10.0205 15.5009 8.33407 15.5267 8.3175L15.6129 8.45073C15.5876 8.46699 13.0747 10.1218 12.3344 13.8973C11.485 18.2289 13.2022 23.476 17.438 29.4926C19.9115 33.0059 21.558 36.4462 22.3319 39.718C22.9519 42.3389 23.0164 44.8581 22.5239 47.2058C21.6843 51.207 19.4825 53.3519 19.4604 53.3731Z" fill="white"/>
<path d="M14.1172 17.1651C17.5196 17.1651 20.2778 14.4177 20.2778 11.0285C20.2778 7.63932 17.5196 4.89185 14.1172 4.89185C10.7148 4.89185 7.95667 7.63932 7.95667 11.0285C7.95667 14.4177 10.7148 17.1651 14.1172 17.1651Z" fill="white"/>
<path d="M15.5698 16.7455C13.9096 16.7455 12.2868 16.2551 10.9064 15.3363C9.52603 14.4176 8.45017 13.1117 7.81486 11.5839C7.17954 10.0561 7.01331 8.37494 7.33719 6.75302C7.66106 5.1311 8.4605 3.64126 9.63439 2.47192C10.8083 1.30257 12.3039 0.50624 13.9322 0.183616C15.5604 -0.139009 17.2481 0.0265684 18.7819 0.659408C20.3157 1.29225 21.6266 2.36393 22.5489 3.73893C23.4713 5.11392 23.9636 6.73048 23.9636 8.38418C23.9611 10.601 23.0759 12.7262 21.5023 14.2937C19.9287 15.8612 17.7952 16.7429 15.5698 16.7455ZM15.5698 0.181494C13.9411 0.18149 12.349 0.662568 10.9948 1.56389C9.64062 2.46522 8.58516 3.7463 7.96189 5.24515C7.33863 6.744 7.17555 8.3933 7.49329 9.98447C7.81102 11.5756 8.5953 13.0372 9.74694 14.1844C10.8986 15.3316 12.3659 16.1128 13.9632 16.4293C15.5606 16.7458 17.2163 16.5834 18.721 15.9625C20.2257 15.3417 21.5118 14.2903 22.4166 12.9414C23.3215 11.5924 23.8044 10.0065 23.8044 8.38418C23.8019 6.20945 22.9336 4.1245 21.3898 2.58673C19.846 1.04896 17.753 0.183957 15.5698 0.181494Z" fill="white"/>
<path d="M20.2778 30.0371C23.0993 30.0371 25.3866 27.7587 25.3866 24.9482C25.3866 22.1376 23.0993 19.8593 20.2778 19.8593C17.4563 19.8593 15.1691 22.1376 15.1691 24.9482C15.1691 27.7587 17.4563 30.0371 20.2778 30.0371Z" fill="white"/>
<path d="M17.6733 47.6986C20.4948 47.6986 22.7821 45.4202 22.7821 42.6097C22.7821 39.7991 20.4948 37.5208 17.6733 37.5208C14.8518 37.5208 12.5646 39.7991 12.5646 42.6097C12.5646 45.4202 14.8518 47.6986 17.6733 47.6986Z" fill="white"/>
<path d="M52.2758 37.5185C52.2225 37.2442 52.1676 36.9737 52.1111 36.7068C52.111 36.7068 52.1108 36.7068 52.1107 36.7067C52.1107 36.7067 52.1106 36.7066 52.1105 36.7066C52.1104 36.7065 52.1104 36.7064 52.1103 36.7063C52.1103 36.7062 52.1103 36.7061 52.1103 36.706C51.3956 33.3283 50.4327 30.5586 49.2924 28.2994L46.2707 27.2641L48.5483 26.9399C47.6276 25.3838 46.6129 24.1092 45.5346 23.0747L39.9848 23.7065L44.1738 21.9181C36.4753 16.1496 26.3823 20.783 23.6321 22.2392C23.2548 22.4381 23.0161 22.5784 22.9397 22.6236C22.9389 22.6236 22.9389 22.6236 22.9381 22.6244C22.9214 22.6347 22.9135 22.6395 22.9135 22.6395L24.4748 23.4472H24.4756L52.2042 37.7944L52.2758 37.5185Z" fill="#8F6F55"/>
<path d="M52.2759 37.5185C52.3117 37.3766 52.3459 37.2344 52.3785 37.092C52.2973 36.9739 52.2082 36.8447 52.1111 36.7067C52.111 36.7067 52.1109 36.7067 52.1108 36.7067C52.1107 36.7066 52.1106 36.7066 52.1106 36.7065C52.1105 36.7064 52.1104 36.7064 52.1104 36.7063C52.1104 36.7062 52.1103 36.7061 52.1103 36.706C48.9128 32.1519 37.1924 17.2713 23.6918 22.3224H23.691C23.4411 22.4159 23.1907 22.5163 22.9398 22.6236C22.939 22.6236 22.939 22.6236 22.9382 22.6244C22.7098 22.7219 22.4811 22.8255 22.2522 22.9351C22.136 22.9898 22.0206 23.0469 21.9044 23.1048C21.8034 23.1555 21.7031 23.207 21.602 23.2601C21.602 23.2601 21.0275 23.4036 20.3837 23.9442C19.1192 25.008 17.5865 27.6073 19.6173 33.6762C19.6173 33.6762 21.4206 38.7044 20.519 41.0397C19.6173 43.3734 25.2078 46.067 26.8288 41.0397C28.4514 36.0108 28.9934 31.1618 28.9934 31.1618C28.9934 31.1618 30.8587 35.077 30.6749 39.0032C30.5993 40.6124 30.7433 42.2232 31.1786 43.7729C31.2232 43.9354 31.2717 44.0979 31.3203 44.2628C31.9068 46.2247 32.8219 48.7487 34.17 51.1894C34.8051 52.3524 35.5383 53.4596 36.3616 54.499C37.4402 54.1498 38.4923 53.7241 39.5098 53.2251C42.6101 51.7065 45.3475 49.5433 47.5374 46.8814C49.7272 44.2195 51.3186 41.1208 52.2042 37.7943L52.2759 37.5185Z" fill="#464646"/>
<path d="M22.1422 25.0559L21.421 19.1296L24.4859 23.4396L22.1422 25.0559Z" fill="#464646"/>
<path d="M20.5707 25.4829L19.8495 19.5566L22.9144 23.8666L20.5707 25.4829Z" fill="#464646"/>
<path d="M19.0009 31.0051L11.3005 21.0349L19.0993 28.0107L19.0009 31.0051Z" fill="#8F6F55"/>
<path d="M35.8905 6.13214C36.5497 6.13214 37.0842 5.59978 37.0842 4.94308C37.0842 4.28639 36.5497 3.75403 35.8905 3.75403C35.2312 3.75403 34.6968 4.28639 34.6968 4.94308C34.6968 5.59978 35.2312 6.13214 35.8905 6.13214Z" fill="#F2F2F2"/>
</g>
<defs>
<clipPath id="clip0_431_775">
<rect width="53" height="59" fill="white"/>
</clipPath>
</defs>
</svg>
